<svg width="1236.05" height="309.85" xmlns="http://www.w3.org/2000/svg">
 <title>gunman_barrel_finder</title>
 <g>
  <title>Layer 1</title>
  <path id="svg_1" fill="#ffffff" d="m0,268.65002l49,-219.34001s3.5,-30.25 43.92,-41.83c0,0 20.33,-4.33 28.25,-4.17s44.42001,0 44.42001,0s19.75,0 37.90997,8.84c0,0 14,8.08 15.25,22.33l0,9.5l-9,42.16999l-62,0l9.34003,-42.84l-45.09001,-0.08l-50.33,226.07999l45.25,0l21.25,-95.91002s4,5 60.75,3l-19.17001,87.58s-4.25,20.17001 -22.15997,32.25c0,0 -15.75002,10.92001 -42.09001,12.75s-61.5,0 -61.5,0s-20.91,-1.82999 -32.91,-10.91998c0,0 -8.75,-4.91 -11.09,-19.25l0,-10.15997z"/>
  <path id="svg_2" fill="#ffffff" d="m226.84001,88.31l61.90999,0l-13,57.84s-59.33,-0.11 -61.58,0.64s12.67001,-58.48 12.67001,-58.48z"/>
  <path id="svg_3" fill="#ffffff" d="m333.54999,88.48l62.17999,0l-13.55997,59.25s-54.62003,-1.62 -61.06003,-1.56l12.44,-57.69z"/>
  <path id="svg_4" fill="#ffffff" d="m209.09001,169.56s32.5,1.25 61.50002,0.67l-21.75002,99.17003l44.07997,0l22.08002,-99.09003s11.66998,0 62.25,-1.5l-22.58002,101.17001s-6.66998,20 -25.07996,29c0,0 -14.92004,9.54999 -48.59003,10.81l-39.08,0s-26.17001,1.11002 -45.82999,-12.81c0,0 -5.75,-3.42001 -9,-16.32999l0,-14.17001l22,-96.92001z"/>
  <path id="svg_5" fill="#ffffff" d="m395.72998,168.81s59.07001,-1.08 61.69,-1.33l-31.87,141.75002l-61.75,0l31.92999,-140.42001z"/>
  <path id="svg_6" fill="#ffffff" d="m471.04999,309.23001l61.5,0l32.25,-144.62001s-40.25,1.12 -61.62997,1.12l-32.12003,144.13002l0,-0.63z"/>
  <path id="svg_7" fill="#ffffff" d="m413.08997,88.64999l-12.91995,59.08s35.66995,0.75 61.08002,1.42l5.08994,-20.75l44.91006,-0.17l-5.08002,22.63s31.37997,0.62 61.49997,1.25l5,-22.38l0,-11.61999s0.13,-10.25001 -13.25,-19.50001c0,0 -9.58002,-10 -44,-10l-102.33002,0.03999z"/>
  <path id="svg_8" fill="#ffffff" d="m551.08997,308.98001l61.33002,0l32.91998,-146.33002s-40.16998,1.66 -61.83997,1.66l-32.41003,144.67001z"/>
  <path id="svg_9" fill="#ffffff" d="m585.83997,152.11s43.83002,1.2 61.33002,1.7l5.66998,-25.82999l31.15997,0l0,3.82999l-4.90997,22.75s33.33002,0.67 60.15997,1.42001l7,-27.58l31.5,-0.42l-5.82996,29s28.07996,0.17 40.08002,0.83s-41.08002,1.5 -41.08002,1.5l-32.91998,149.74998l61.34003,0l40.5,-182.16001l0,-5.50001s2.57996,-13.59 -17.25,-25c0,0 -10.92004,-7.49999 -40.17004,-8.17l-182.66998,0l-13.91003,63.88002z"/>
  <path id="svg_10" fill="#ffffff" d="m677.16998,161.61s54.25,-0.88 61.75,-1.25l-33.37,148.62001l-61.5,0l33.12,-147.37001z"/>
  <path id="svg_11" fill="#ffffff" d="m852.91998,150.11l61.88,0l4.75,-21.87999l44.62,0l-11.87,56l-46.5,0s-29,-1.37001 -53.63,17c0,0 -11.37,7.62999 -17.12,27.99998l-7.88,36.38002a48.52,48.52 0 0 0 0,17.12c1.75,8.5 11.25,27.92001 54.25,26.33002s104.13,0.09 104.13,0.09l39.75006,-177.29002l0,-15.5s-1.38007,-27.87998 -57.00006,-27.75l-35.38,0s-42.19,-2.37 -62.69,20.13c0,-0.01001 -12.67999,8.62 -17.31,41.37z"/>
  <path id="svg_12" fill="#ffffff" d="m1004.09003,309.15002l61.50006,0l40.82996,-180.59003l44.5,0l-39.82996,180.59003l61.32996,0l40.17004,-180.59003l0,-10s-0.5,-30.89 -56.84009,-30s-102.65991,0 -102.65991,0l-49.00006,220.59003z"/>
  <path id="svg_13" fill="#ffffff" d="m215.11,155.48s-9.31,2.94 0,6.44s255.93999,-3.19 255.93999,-3.19s-251.24998,-7.5 -255.93999,-3.25z"/>
  <path id="svg_14" fill="#ffffff" d="m183.42,144.23l3.26999,0.24001c0.69,0 1.39001,0.12 2.08002,0.23l4.70999,0.72l3.25,0.86a4.65,4.65 0 0 1 1.79999,0.91l0,0c0.14001,0.11 0.76001,0.87999 0.87003,1l-0.17001,-0.24001a2.5,2.5 0 0 1 0.57001,1.59l0,17.83a2.19,2.19 0 0 1 -0.5,1.38l0,0a4.62,4.62 0 0 1 -1.85001,1.33l-1.34,0.53a9.21,9.21 0 0 1 -1.16,0.37l-2.75,0.67a31,31 0 0 1 -3.94,0.71001l-2.70999,0.31999a34.61,34.61 0 0 1 -3.66,0.25c-6.87,0.12001 -30.64999,0.5 -32.84,0c-2.57001,-0.62999 -44.32001,-4.06 -49.19,-13.56c0,0 -0.94,-8.88 52.44,-15.13c0,-0.00999 27.73999,-0.25999 31.12,-0.00999z"/>
  <polygon id="svg_15" fill="#16243e" points="888.75 269.39 932.75 269.39 944.75 214.06 900.75 214.06 888.75 269.39"/>
  <text font-weight="bold" transform="matrix(1.82012 0 0 1.72885 -210.118 -49.4138)" stroke="null" font-style="italic" xml:space="preserve" text-anchor="start" font-family="'Verdana'" font-size="45" stroke-width="0" fill="#ffffff" id="svg_36" y="70.25811" x="241.71599">BARREL FINDER</text>
 </g>
</svg>